<svg xmlns="http://www.w3.org/2000/svg" version="1.1"
    xmlns:xlink="http://www.w3.org/1999/xlink" width="512" height="512" x="0" y="0" viewBox="0 0 32 32" style="enable-background:new 0 0 512 512" xml:space="preserve" fill-rule="evenodd" class="">
    <g>
        <path d="M27.586 4.414a4 4 0 0 0-5.657 0L3 23.343a1.004 1.004 0 0 0-.283.566l-.707 4.95a1 1 0 0 0 1.131 1.131l4.95-.707c.214-.031.413-.13.566-.283l18.929-18.929a4 4 0 0 0 0-5.657zM20 9.172 22.828 12 7.478 27.35l-3.299.471.471-3.299zm4.243 1.414-2.829-2.829 1.929-1.929a2 2 0 0 1 2.829 0c.187.188.187.188 0 0a2 2 0 0 1 0 2.829z" fill="#ffffff" opacity="1" data-original="#000000" class=""></path>
    </g>
</svg>