<svg width="26" height="26" viewBox="0 0 26 26" fill="none" xmlns="http://www.w3.org/2000/svg">
<path d="M13.0195 21.4961H22.4766C24.3359 21.4961 25.2656 20.8828 25.2656 19.6562C25.2656 18.9141 25.0391 18.1328 24.5859 17.3125C24.1406 16.4844 23.4922 15.7109 22.6406 14.9922C21.7969 14.2734 20.7773 13.6875 19.582 13.2344C18.3867 12.7734 17.043 12.543 15.5508 12.543C14.5586 12.543 13.6328 12.6484 12.7734 12.8594C11.9219 13.0703 11.1406 13.3633 10.4297 13.7383C10.6875 13.9336 10.9258 14.1484 11.1445 14.3828C11.3633 14.6094 11.5703 14.8555 11.7656 15.1211C12.2891 14.8867 12.8672 14.6992 13.5 14.5586C14.1406 14.418 14.8242 14.3477 15.5508 14.3477C16.8008 14.3477 17.9062 14.5273 18.8672 14.8867C19.8281 15.2383 20.6367 15.6836 21.293 16.2227C21.957 16.7539 22.457 17.3086 22.793 17.8867C23.1367 18.457 23.3086 18.9609 23.3086 19.3984C23.3086 19.5078 23.2773 19.582 23.2148 19.6211C23.1602 19.668 23.0625 19.6914 22.9219 19.6914H13.3008C13.293 20.0117 13.2656 20.3164 13.2188 20.6055C13.1797 20.9023 13.1133 21.1992 13.0195 21.4961ZM15.5508 11.2188C16.4414 11.2188 17.25 10.9805 17.9766 10.5039C18.7031 10.0273 19.2852 9.39453 19.7227 8.60547C20.1602 7.80859 20.3789 6.92969 20.3789 5.96875C20.3789 5.03125 20.1602 4.17578 19.7227 3.40234C19.293 2.62891 18.7109 2.01563 17.9766 1.5625C17.25 1.10156 16.4414 0.871094 15.5508 0.871094C14.668 0.871094 13.8594 1.10156 13.125 1.5625C12.3984 2.02344 11.8164 2.64062 11.3789 3.41406C10.9492 4.1875 10.7344 5.04688 10.7344 5.99219C10.7344 6.95312 10.9531 7.82812 11.3906 8.61719C11.8281 9.40625 12.4102 10.0391 13.1367 10.5156C13.8633 10.9844 14.668 11.2188 15.5508 11.2188ZM15.5508 9.41406C15.0273 9.41406 14.543 9.26172 14.0977 8.95703C13.6602 8.65234 13.3047 8.24219 13.0312 7.72656C12.7656 7.21094 12.6328 6.63281 12.6328 5.99219C12.6328 5.36719 12.7617 4.80469 13.0195 4.30469C13.2852 3.80469 13.6406 3.41016 14.0859 3.12109C14.5312 2.82422 15.0195 2.67578 15.5508 2.67578C16.0898 2.67578 16.5781 2.82031 17.0156 3.10938C17.4531 3.39844 17.8047 3.79297 18.0703 4.29297C18.3359 4.79297 18.4688 5.35156 18.4688 5.96875C18.4688 6.60938 18.3359 7.19141 18.0703 7.71484C17.8047 8.23047 17.4492 8.64453 17.0039 8.95703C16.5664 9.26172 16.082 9.41406 15.5508 9.41406ZM6.09375 25.1523C6.85938 25.1523 7.58203 25.0039 8.26172 24.707C8.94922 24.4102 9.55469 24 10.0781 23.4766C10.6016 22.9531 11.0117 22.3477 11.3086 21.6602C11.6133 20.9805 11.7656 20.2539 11.7656 19.4805C11.7656 18.4414 11.5078 17.4922 10.9922 16.6328C10.4844 15.7734 9.79688 15.0898 8.92969 14.582C8.07031 14.0664 7.125 13.8086 6.09375 13.8086C5.05469 13.8086 4.10547 14.0664 3.24609 14.582C2.39453 15.0898 1.71094 15.7734 1.19531 16.6328C0.679688 17.4922 0.421875 18.4414 0.421875 19.4805C0.421875 20.2539 0.570312 20.9844 0.867188 21.6719C1.16406 22.3594 1.57422 22.9648 2.09766 23.4883C2.61328 24.0117 3.21484 24.418 3.90234 24.707C4.58984 25.0039 5.32031 25.1523 6.09375 25.1523ZM3.45703 20.3711C3.24609 20.3711 3.07031 20.3008 2.92969 20.1602C2.78906 20.0195 2.71875 19.8516 2.71875 19.6562C2.71875 19.4531 2.79297 19.2773 2.94141 19.1289C3.08203 18.9883 3.25391 18.918 3.45703 18.918H5.42578V16.2344C5.42578 16.0391 5.49609 15.875 5.63672 15.7422C5.77734 15.6016 5.94922 15.5312 6.15234 15.5312C6.35547 15.5312 6.52734 15.6016 6.66797 15.7422C6.81641 15.875 6.89062 16.0391 6.89062 16.2344V19.6562C6.89062 19.8594 6.81641 20.0273 6.66797 20.1602C6.52734 20.3008 6.35547 20.3711 6.15234 20.3711H3.45703Z" fill="black"/>
</svg>
