<svg xmlns="http://www.w3.org/2000/svg" version="1.1" xmlns:xlink="http://www.w3.org/1999/xlink" width="512" height="512" x="0" y="0" viewBox="0 0 512 512" style="enable-background:new 0 0 512 512" xml:space="preserve" class=""><g><path d="M170.256 403.875c10.65-12.234 17.122-28.196 17.122-45.652 0-38.393-31.234-69.627-69.627-69.627a69.227 69.227 0 0 0-39.024 11.994 190.434 190.434 0 0 1-2.463-30.537c0-49.249 18.842-95.868 53.054-131.273 25.408-26.294 57.27-44.329 92.103-52.568l-23.142 27.868 23.133 19.21 59.366-71.49-79.239-44.37-14.69 26.236 24.912 13.95c-39.327 9.833-75.273 30.476-104.065 60.27-39.659 41.041-61.5 95.081-61.5 152.168 0 20.2 2.752 40.155 8.17 59.414a69.185 69.185 0 0 0-6.241 28.756c0 17.491 6.497 33.483 17.185 45.726C27.591 417.966.642 454.325.642 496.864v15.034h234.473v-15.034c.002-42.614-27.037-79.026-64.859-92.989zm-52.504-85.21c21.813 0 39.558 17.746 39.558 39.558s-17.746 39.558-39.559 39.558c-21.812 0-39.557-17.746-39.557-39.558s17.746-39.558 39.558-39.558zm-85.39 163.163c6.879-30.85 34.471-53.977 67.363-53.977h36.311c32.892 0 60.484 23.128 67.363 53.977H32.362zM511.357 208.266c0-42.611-27.04-79.025-64.86-92.988 10.65-12.233 17.122-28.196 17.122-45.652C463.619 31.234 432.385 0 393.992 0c-38.393 0-69.627 31.234-69.627 69.626 0 17.491 6.497 33.483 17.186 45.726-37.719 14.016-64.667 50.375-64.667 92.915v15.034h171.669a189.552 189.552 0 0 1 5.576 45.751c0 45.405-16.341 89.291-46.014 123.576-21.289 24.598-48.406 43.143-78.51 54.073l19.818-31.008-25.335-16.193-50.044 78.3 84.129 34.2 11.325-27.855-25.967-10.556a219.52 219.52 0 0 0 87.321-61.284c34.401-39.748 53.347-90.623 53.347-143.254 0-15.46-1.611-30.777-4.793-45.751h31.952v-15.034zM393.992 30.069c21.813 0 39.558 17.746 39.558 39.557 0 21.813-17.746 39.558-39.558 39.558s-39.558-17.746-39.558-39.558 17.745-39.557 39.558-39.557zm-85.389 163.163c6.879-30.851 34.471-53.978 67.363-53.978h36.311c32.892 0 60.484 23.128 67.363 53.978H308.603z" fill="#ffffff" opacity="1" data-original="#000000"></path></g></svg>