<svg xmlns="http://www.w3.org/2000/svg" version="1.1" xmlns:xlink="http://www.w3.org/1999/xlink" width="512" height="512" x="0" y="0" viewBox="0 0 273.585 273.585" style="enable-background:new 0 0 512 512" xml:space="preserve" class=""><g><path d="M231.985 36.146h-43.794V18.5c0-10.201-8.299-18.5-18.5-18.5h-65.797c-10.201 0-18.5 8.299-18.5 18.5v17.646H41.6c-6.893 0-12.5 5.607-12.5 12.5v22.909c0 6.893 5.607 12.5 12.5 12.5h7.26v172.029c0 9.65 7.851 17.5 17.5 17.5h140.864c9.649 0 17.5-7.85 17.5-17.5V84.056h7.261c6.893 0 12.5-5.607 12.5-12.5v-22.91c0-6.892-5.608-12.5-12.5-12.5zM100.394 18.5c0-1.897 1.603-3.5 3.5-3.5h65.797c1.897 0 3.5 1.603 3.5 3.5v17.646h-72.797V18.5zm109.33 237.585c0 1.355-1.145 2.5-2.5 2.5H66.36c-1.355 0-2.5-1.145-2.5-2.5V84.056h145.864v172.029zm19.761-187.029H44.1v-17.91h185.385v17.91z" style="" fill="#070133" data-original="#000002" opacity="1"></path><path d="M92.894 237.38a7.5 7.5 0 0 0 7.5-7.5V115.47a7.5 7.5 0 0 0-15 0v114.41a7.5 7.5 0 0 0 7.5 7.5zM136.793 237.38a7.5 7.5 0 0 0 7.5-7.5V115.47a7.5 7.5 0 0 0-7.5-7.5 7.5 7.5 0 0 0-7.5 7.5v114.41a7.5 7.5 0 0 0 7.5 7.5zM180.691 237.38a7.5 7.5 0 0 0 7.5-7.5V115.47a7.5 7.5 0 0 0-7.5-7.5 7.5 7.5 0 0 0-7.5 7.5v114.41a7.5 7.5 0 0 0 7.5 7.5z" style="" fill="#070133" data-original="#000002" opacity="1"></path></g></svg>